<?xml version="1.0" standalone="yes"?>
<svg xmlns="http://www.w3.org/2000/svg" width="225" height="225">
<path style="fill:#ffffff; stroke:none;" d="M0 0L0 101C1.79326 96.766 1.80227 91.5356 2.88426 87C4.76204 79.1285 7.7149 71.273 11.2593 64C26.8499 32.0083 62.8595 1.76657 100 1C91.6425 -2.50693 78.0596 0 69 0L0 0z"/>
<path style="fill:#a8ebe5; stroke:none;" d="M100 0C101.769 0.778915 103.036 0.912415 105 1C103.231 0.221069 101.964 0.0875854 100 0z"/>
<path style="fill:#5dddd3; stroke:none;" d="M105 0.424377C81.2447 3.55264 59.9091 9.95862 41 25.4645C30.316 34.2256 21.6356 45.1743 14.6042 57C-12.8159 103.116 0.135269 165.895 41 199.536C65.3574 219.588 96.993 227.572 128 223.714C143.732 221.756 158.515 216.205 172 207.997C239.872 166.685 241.911 63.7355 176 19.5193C165.529 12.4948 154.232 7.19868 142 4.12654C130.285 1.18416 117.082 -1.16673 105 0.424377z"/>
<path style="fill:#c2f1ed; stroke:none;" d="M119 0C121.052 0.874237 122.747 0.952789 125 1C122.948 0.125763 121.253 0.0472107 119 0z"/>
<path style="fill:#ffffff; stroke:none;" d="M125 0C129.303 1.93169 134.405 2.00941 139 3.13116C146.516 4.96614 154.049 7.87186 161 11.2593C193.291 26.9959 223.689 63.4807 224 101C227.507 92.6425 225 79.0596 225 70L225 0L125 0z"/>
<path style="fill:#a8ebe5; stroke:none;" d="M93 1C94.2484 1.68481 94.5484 1.74878 96 2C94.7517 1.31525 94.4515 1.25119 93 1M129.667 1.33333C129.222 1.77783 130.278 1.7222 130.333 1.66667C130.778 1.22221 129.722 1.27773 129.667 1.33333z"/>
<path style="fill:#9fe9e3; stroke:none;" d="M88.6667 2.33333C88.2222 2.77783 89.2778 2.72221 89.3333 2.66667C89.7777 2.22227 88.7223 2.27774 88.6667 2.33333z"/>
<path style="fill:#c9f2ef; stroke:none;" d="M135.667 2.33333C135.222 2.77783 136.278 2.72218 136.333 2.66667C136.778 2.22224 135.722 2.27776 135.667 2.33333z"/>
<path style="fill:#95e7e0; stroke:none;" d="M84.6667 3.33333C84.2222 3.77783 85.2778 3.72221 85.3333 3.66667C85.7778 3.22223 84.7222 3.2778 84.6667 3.33333z"/>
<path style="fill:#c2f1ed; stroke:none;" d="M139.667 3.33333C139.222 3.77782 140.278 3.7222 140.333 3.66667C140.778 3.22221 139.722 3.27776 139.667 3.33333z"/>
<path style="fill:#9fe9e3; stroke:none;" d="M80.6667 4.33333C80.2222 4.7778 81.2778 4.72224 81.3333 4.66667C81.7778 4.22224 80.7222 4.27777 80.6667 4.33333z"/>
<path style="fill:#cbf3ef; stroke:none;" d="M143.667 4.33333C143.222 4.77776 144.278 4.72224 144.333 4.66667C144.778 4.22223 143.722 4.27774 143.667 4.33333z"/>
<path style="fill:#a8ebe5; stroke:none;" d="M67 9L68 10L67 9M157 9L158 10L157 9M57 14L58 15L57 14z"/>
<path style="fill:#ffffff; stroke:none;" d="M103 32C96.1241 35.2354 93.1729 41.6482 93 49L130 49C129.452 42.3046 127.335 36.0962 121 33C121.709 29.1836 122.739 24.7826 121.258 21.0154C118.121 13.0419 107.833 12.4556 103.148 19.1852C100.259 23.3351 101.177 27.679 103 32z"/>
<path style="fill:#ebeff0; stroke:none;" d="M114 14C120.976 20.32 122.171 23.7319 121 33C126.539 37.0891 129.087 42.2594 130 49L132 49C131.815 41.1514 127.177 38.0986 124.448 31.4244C123.377 28.805 124.276 25.7369 123.852 23C123.042 17.7713 118.824 14.9734 114 14z"/>
<path style="fill:#a8ebe5; stroke:none;" d="M167 14L168 15L167 14M105 16L106 17L105 16M52 17L53 18L52 17M172 17L173 18L172 17z"/>
<path style="fill:#afede7; stroke:none;" d="M103 18L104 19L103 18z"/>
<path style="fill:#b4eee9; stroke:none;" d="M111 18C112.248 18.6848 112.548 18.7488 114 19C112.752 18.3152 112.451 18.2512 111 18z"/>
<path style="fill:#9fe9e3; stroke:none;" d="M49 19L50 20L49 19z"/>
<path style="fill:#a8ebe5; stroke:none;" d="M109 19L110 20L109 19z"/>
<path style="fill:#5dddd3; stroke:none;" d="M110.228 19.7469C103.397 22.7831 109.056 32.3703 115.772 29.3958C122.395 26.4623 116.539 16.9421 110.228 19.7469z"/>
<path style="fill:#b4eee9; stroke:none;" d="M46 21L47 22L46 21z"/>
<path style="fill:#9fe9e3; stroke:none;" d="M107 21L108 22L107 21z"/>
<path style="fill:#b4eee9; stroke:none;" d="M178 21L179 22L178 21z"/>
<path style="fill:#afede7; stroke:none;" d="M106 23L106 26C106.696 24.4463 106.696 24.5537 106 23z"/>
<path style="fill:#c2f1ed; stroke:none;" d="M124 23L124 28C124.83 25.9695 124.83 25.0305 124 23z"/>
<path style="fill:#8de6de; stroke:none;" d="M101.333 28.6667C101.278 28.7222 101.222 29.7778 101.667 29.3333C101.722 29.2777 101.778 28.2223 101.333 28.6667z"/>
<path style="fill:#7be2da; stroke:none;" d="M110 30C111.769 30.7789 113.036 30.9124 115 31C113.231 30.2211 111.964 30.0876 110 30z"/>
<path style="fill:#afede7; stroke:none;" d="M102 31L103 32L102 31z"/>
<path style="fill:#95e7e0; stroke:none;" d="M25 41L26 42L25 41z"/>
<path style="fill:#b4eee9; stroke:none;" d="M21 46L22 47L21 46M203 46L204 47L203 46z"/>
<path style="fill:#95e7e0; stroke:none;" d="M19 49L20 50L19 49z"/>
<path style="fill:#f5d791; stroke:none;" d="M92 49C96.2151 50.7687 101.464 50 106 50L133 50C128.785 48.2313 123.536 49 119 49L92 49z"/>
<path style="fill:#c7c873; stroke:none;" d="M90 50L91 51L90 50z"/>
<path style="fill:#ffb800; stroke:none;" d="M91 50C94.9586 51.6611 99.7397 51 104 51L129 51C125.041 49.3389 120.26 50 116 50L91 50z"/>
<path style="fill:#fbab08; stroke:none;" d="M129 50C132.514 53.407 136.513 56.1956 139.671 60.0008C146.272 67.9537 149.164 78.8259 149.91 89C151.064 104.753 145.334 130.103 160 141C157.334 131.232 153.793 122.261 153.09 112C152.145 98.222 154.336 84.4392 150.112 71C146.968 60.9988 140.334 50.5892 129 50z"/>
<path style="fill:#cfbb5e; stroke:none;" d="M134 50L135 51L134 50z"/>
<path style="fill:#acce8f; stroke:none;" d="M88 51L89 52L88 51z"/>
<path style="fill:#ffba1b; stroke:none;" d="M63 145L162 145C160.388 140.631 156.589 138.083 154.442 133.999C151.64 128.669 150.99 121.893 150.285 116C148.239 98.888 152.724 80.8751 143.756 65C141.007 60.1328 137.081 54.9271 132 52.3179C127.404 49.958 121.01 51 116 51C103.032 51 88.33 47.7068 80.1049 60.0008C69.5548 75.7699 74.5284 92.441 72.8958 110C71.7491 122.334 66.3564 133.345 63 145z"/>
<path style="fill:#b3c687; stroke:none;" d="M136 51L137 52L136 51z"/>
<path style="fill:#a8ebe5; stroke:none;" d="M17 52L18 53L17 52z"/>
<path style="fill:#e7c047; stroke:none;" d="M87 52L88 53L87 52z"/>
<path style="fill:#a8ebe5; stroke:none;" d="M207 52L208 53L207 52z"/>
<path style="fill:#9dd19f; stroke:none;" d="M84 54L85 55L84 54M140 54L141 55L140 54M83 55L84 56L83 55M141 55L142 56L141 55z"/>
<path style="fill:#a8ebe5; stroke:none;" d="M14 57L15 58L14 57M210 57L211 58L210 57z"/>
<path style="fill:#d7c45c; stroke:none;" d="M80 59L81 60L80 59z"/>
<path style="fill:#d5b958; stroke:none;" d="M144 59L145 60L144 59z"/>
<path style="fill:#a1d09a; stroke:none;" d="M79 60L80 61L79 60z"/>
<path style="fill:#9dd19f; stroke:none;" d="M145 60L146 61L145 60z"/>
<path style="fill:#c7c873; stroke:none;" d="M78 62L79 63L78 62z"/>
<path style="fill:#c4c077; stroke:none;" d="M146 62L147 63L146 62z"/>
<path style="fill:#d7c45c; stroke:none;" d="M77 64L78 65L77 64z"/>
<path style="fill:#cfbb5e; stroke:none;" d="M147 64L148 65L147 64z"/>
<path style="fill:#cabf6a; stroke:none;" d="M76 66L77 67L76 66z"/>
<path style="fill:#c4c077; stroke:none;" d="M148 66L149 67L148 66z"/>
<path style="fill:#a8ebe5; stroke:none;" d="M9 67L10 68L9 67M215 67L216 68L215 67z"/>
<path style="fill:#acce8f; stroke:none;" d="M75 68L76 69L75 68z"/>
<path style="fill:#a4ca93; stroke:none;" d="M149 68L150 69L149 68z"/>
<path style="fill:#b3c687; stroke:none;" d="M74 71L75 72L74 71z"/>
<path style="fill:#a4ca93; stroke:none;" d="M150 71L151 72L150 71z"/>
<path style="fill:#9fe9e3; stroke:none;" d="M7 72L8 73L7 72z"/>
<path style="fill:#dbb84a; stroke:none;" d="M150 72L151 73L150 72z"/>
<path style="fill:#9fe9e3; stroke:none;" d="M217 72L218 73L217 72z"/>
<path style="fill:#bac37b; stroke:none;" d="M73.3333 74.6667C73.2778 74.7222 73.2222 75.7778 73.6667 75.3333C73.7223 75.2777 73.7778 74.2223 73.3333 74.6667z"/>
<path style="fill:#b3c687; stroke:none;" d="M151.333 74.6667C151.278 74.7222 151.222 75.7778 151.667 75.3333C151.722 75.2778 151.778 74.2222 151.333 74.6667M72 79L72 82C72.6961 80.4463 72.6961 80.5537 72 79z"/>
<path style="fill:#a4ca93; stroke:none;" d="M152.333 79.6667C152.278 79.7222 152.222 80.7778 152.667 80.3333C152.722 80.2778 152.778 79.2223 152.333 79.6667z"/>
<path style="fill:#9fe9e3; stroke:none;" d="M4.33333 80.6667C4.27775 80.7222 4.22224 81.7778 4.66667 81.3333C4.72218 81.2778 4.7778 80.2222 4.33333 80.6667z"/>
<path style="fill:#d5b958; stroke:none;" d="M152 81L152 84C152.696 82.4463 152.696 82.5537 152 81z"/>
<path style="fill:#8de6de; stroke:none;" d="M3.33333 84.6667C3.27778 84.7222 3.22222 85.7778 3.66667 85.3333C3.72221 85.2778 3.7778 84.2222 3.33333 84.6667z"/>
<path style="fill:#ffb800; stroke:none;" d="M72 84L72 114C74.3948 108.293 73.0004 100.154 73 94C72.9998 90.5814 73.3283 87.1656 72 84z"/>
<path style="fill:#8de6de; stroke:none;" d="M221.333 84.6667C221.278 84.7222 221.222 85.7779 221.667 85.3333C221.722 85.2778 221.778 84.2222 221.333 84.6667z"/>
<path style="fill:#85d4b3; stroke:none;" d="M71 86L71 95C72.2561 92.0059 72.2561 88.9941 71 86M153 87L153 110C155.284 104.557 155.284 92.4427 153 87z"/>
<path style="fill:#9fe9e3; stroke:none;" d="M2.33333 88.6667C2.27778 88.7222 2.22222 89.7778 2.66667 89.3333C2.72222 89.2778 2.77778 88.2222 2.33333 88.6667M222.333 88.6667C222.278 88.7222 222.222 89.7778 222.667 89.3333C222.722 89.2777 222.778 88.2223 222.333 88.6667z"/>
<path style="fill:#ffffff; stroke:none;" d="M35 91C33.0734 101.341 31.9254 112.499 33.2894 123C33.7694 126.696 34.0834 131.546 37 134C36.232 128.297 34.2947 122.781 34.0394 117C33.6375 107.904 35.804 99.8815 37 91L35 91M188 91C189.141 99.4726 191.341 107.335 190.961 116C190.691 122.14 188.53 127.927 188 134C194.196 126.431 192.828 110.199 191.575 101C191.066 97.2658 191.128 93.3813 188 91z"/>
<path style="fill:#afede7; stroke:none;" d="M1.33333 93.6667C1.2778 93.7222 1.22221 94.7778 1.66667 94.3333C1.72224 94.2778 1.77779 93.2222 1.33333 93.6667z"/>
<path style="fill:#ffffff; stroke:none;" d="M43 93C41.3145 101.946 40.4216 110.878 41.0903 120C41.3698 123.814 41.9526 128.538 45 131C44.2581 125.954 42.4465 121.122 42.0895 116C41.5467 108.212 43.4402 100.561 45 93L43 93M180 93C181.421 99.8882 183.237 106.907 182.96 114C182.733 119.813 180.838 125.299 180 131C186.422 125.831 184.714 109.373 183.561 102C183.037 98.6453 182.688 95.1734 180 93z"/>
<path style="fill:#afede7; stroke:none;" d="M223.333 93.6667C223.278 93.7222 223.222 94.7778 223.667 94.3333C223.722 94.2778 223.778 93.2222 223.333 93.6667z"/>
<path style="fill:#95e7e0; stroke:none;" d="M44.3333 95.6667C44.2777 95.7223 44.2222 96.7777 44.6667 96.3333C44.7222 96.2778 44.7778 95.2222 44.3333 95.6667z"/>
<path style="fill:#ffffff; stroke:none;" d="M50 95C48.4857 103.127 47.1177 111.731 48.3002 120C48.7768 123.333 49.3541 126.863 52 129C51.1499 122.687 49.2779 116.444 49.456 110C49.5947 104.983 51.0481 99.9086 52 95L50 95M173 95C174.076 100.217 175.819 105.634 175.821 111C175.823 117.071 173.804 123.032 173 129C175.53 126.953 175.728 124.156 176.246 121C177.358 114.224 179.134 99.669 173 95z"/>
<path style="fill:#95e7e0; stroke:none;" d="M180.333 95.6667C180.278 95.7222 180.222 96.7778 180.667 96.3333C180.722 96.2778 180.778 95.2222 180.333 95.6667z"/>
<path style="fill:#c2f1ed; stroke:none;" d="M182.333 95.6667C182.278 95.7222 182.222 96.7778 182.667 96.3333C182.722 96.2778 182.778 95.2223 182.333 95.6667z"/>
<path style="fill:#9fe9e3; stroke:none;" d="M51.3333 97.6667C51.2778 97.7222 51.2222 98.7778 51.6667 98.3333C51.7223 98.2777 51.7777 97.2223 51.3333 97.6667z"/>
<path style="fill:#ffffff; stroke:none;" d="M56 97C55.5399 107.717 54.258 117.402 57 128C58.4888 123.847 56.3906 119.319 56.0895 115C55.6587 108.819 57.2171 103.063 58 97L56 97M167 97C167.694 102.377 169.092 107.533 168.985 113C168.884 118.076 167.401 122.955 167 128C172.957 119.64 169.408 106.508 169 97L167 97z"/>
<path style="fill:#9fe9e3; stroke:none;" d="M173.333 97.6667C173.278 97.7222 173.222 98.7778 173.667 98.3333C173.722 98.2778 173.778 97.2222 173.333 97.6667z"/>
<path style="fill:#c2f1ed; stroke:none;" d="M33 98L33 101C33.6961 99.4463 33.6961 99.5537 33 98z"/>
<path style="fill:#8de6de; stroke:none;" d="M35.3333 98.6667C35.2778 98.7222 35.2222 99.7778 35.6667 99.3333C35.7222 99.2778 35.7778 98.2222 35.3333 98.6667M189.333 98.6667C189.278 98.7222 189.222 99.7778 189.667 99.3333C189.722 99.2778 189.778 98.2222 189.333 98.6667z"/>
<path style="fill:#c2f1ed; stroke:none;" d="M191 98L191 101C191.696 99.4463 191.696 99.5537 191 98z"/>
<path style="fill:#a8ebe5; stroke:none;" d="M43.3333 99.6667C43.2778 99.7222 43.2222 100.778 43.6667 100.333C43.7222 100.278 43.7778 99.2222 43.3333 99.6667M181 99L181 102C181.696 100.446 181.696 100.554 181 99z"/>
<path style="fill:#cbf3ef; stroke:none;" d="M41.3333 100.667C41.2778 100.722 41.2222 101.778 41.6667 101.333C41.7223 101.278 41.7778 100.222 41.3333 100.667z"/>
<path style="fill:#a8ebe5; stroke:none;" d="M57.3333 100.667C57.2778 100.722 57.2222 101.778 57.6667 101.333C57.7222 101.278 57.7778 100.222 57.3333 100.667M167.333 100.667C167.278 100.722 167.222 101.778 167.667 101.333C167.722 101.278 167.778 100.222 167.333 100.667z"/>
<path style="fill:#c9f2ef; stroke:none;" d="M183.333 100.667C183.278 100.722 183.222 101.778 183.667 101.333C183.722 101.278 183.778 100.222 183.333 100.667z"/>
<path style="fill:#95e7e0; stroke:none;" d="M0 101L0 106C0.829894 103.97 0.829895 103.03 0 101z"/>
<path style="fill:#cbf3ef; stroke:none;" d="M55.3333 101.667C55.2778 101.722 55.2222 102.778 55.6667 102.333C55.7222 102.278 55.7778 101.222 55.3333 101.667M169.333 101.667C169.278 101.722 169.222 102.778 169.667 102.333C169.722 102.278 169.778 101.222 169.333 101.667z"/>
<path style="fill:#c2f1ed; stroke:none;" d="M174 101L174 104C174.696 102.446 174.696 102.554 174 101z"/>
<path style="fill:#b4eee9; stroke:none;" d="M224 101L224 104C224.696 102.446 224.696 102.554 224 101M48 102L48 105C48.6961 103.446 48.6961 103.554 48 102z"/>
<path style="fill:#95e7e0; stroke:none;" d="M50 102L50 105C50.6961 103.446 50.6961 103.554 50 102z"/>
<path style="fill:#afede7; stroke:none;" d="M176.333 102.667C176.278 102.722 176.222 103.778 176.667 103.333C176.722 103.278 176.778 102.222 176.333 102.667z"/>
<path style="fill:#c2f1ed; stroke:none;" d="M34.3333 103.667C34.2778 103.722 34.2222 104.778 34.6667 104.333C34.7222 104.278 34.7778 103.222 34.3333 103.667z"/>
<path style="fill:#daf6f4; stroke:none;" d="M32 104L32 117C33.5909 113.209 33.5909 107.791 32 104z"/>
<path style="fill:#95e7e0; stroke:none;" d="M190 104L190 108C190.71 106.241 190.71 105.759 190 104z"/>
<path style="fill:#b4eee9; stroke:none;" d="M192 104L192 108C192.71 106.241 192.71 105.759 192 104z"/>
<path style="fill:#8de6de; stroke:none;" d="M40 105L40 108C40.6961 106.446 40.6961 106.554 40 105z"/>
<path style="fill:#c2f1ed; stroke:none;" d="M56 105L56 108C56.6961 106.446 56.6961 106.554 56 105M168 105L168 108C168.696 106.446 168.696 106.554 168 105z"/>
<path style="fill:#95e7e0; stroke:none;" d="M42 106L42 116C43.3457 112.793 43.3457 109.207 42 106z"/>
<path style="fill:#c2f1ed; stroke:none;" d="M54 106L54 117C55.4309 113.59 55.4309 109.41 54 106z"/>
<path style="fill:#95e7e0; stroke:none;" d="M182 106L182 115C183.256 112.006 183.256 108.994 182 106z"/>
<path style="fill:#8dd2b2; stroke:none;" d="M71 107L71 110C71.6961 108.446 71.6961 108.554 71 107z"/>
<path style="fill:#c2f1ed; stroke:none;" d="M170 107L170 117C171.346 113.793 171.346 110.207 170 107z"/>
<path style="fill:#daf6f4; stroke:none;" d="M175 107L175 115C176.161 112.23 176.161 109.77 175 107z"/>
<path style="fill:#b4eee9; stroke:none;" d="M184 107L184 116C185.256 113.006 185.256 109.994 184 107M40 108L40 117C41.2561 114.006 41.2561 110.994 40 108z"/>
<path style="fill:#cbf3ef; stroke:none;" d="M49 108L49 113C49.8299 110.97 49.8299 110.03 49 108z"/>
<path style="fill:#8de6de; stroke:none;" d="M56 108L56 116C57.1614 113.23 57.1614 110.77 56 108M168 108L168 117C169.256 114.006 169.256 110.994 168 108z"/>
<path style="fill:#daf6f4; stroke:none;" d="M192 108L192 117C193.256 114.006 193.256 110.994 192 108z"/>
<path style="fill:#c7c873; stroke:none;" d="M71 110L71 114C71.7102 112.241 71.7102 111.759 71 110z"/>
<path style="fill:#b3c687; stroke:none;" d="M153 110L153 113C153.696 111.446 153.696 111.554 153 110z"/>
<path style="fill:#dbb84a; stroke:none;" d="M153 113L153 116C153.696 114.446 153.696 114.554 153 113z"/>
<path style="fill:#e7c047; stroke:none;" d="M71.3333 114.667C71.2778 114.722 71.2222 115.778 71.6667 115.333C71.7222 115.278 71.7778 114.222 71.3333 114.667z"/>
<path style="fill:#cbf3ef; stroke:none;" d="M182 115L182 119C182.71 117.241 182.71 116.759 182 115z"/>
<path style="fill:#c2f1ed; stroke:none;" d="M42 116L42 120C42.7102 118.241 42.7102 117.759 42 116z"/>
<path style="fill:#b4eee9; stroke:none;" d="M56 116L56 119C56.6961 117.446 56.6961 117.554 56 116z"/>
<path style="fill:#8de6de; stroke:none;" d="M184 116L184 119C184.696 117.446 184.696 117.554 184 116z"/>
<path style="fill:#b4eee9; stroke:none;" d="M190 116L190 121C190.83 118.969 190.83 118.03 190 116z"/>
<path style="fill:#a8ebe5; stroke:none;" d="M32 117L32 120C32.6961 118.446 32.6961 118.554 32 117z"/>
<path style="fill:#9fe9e3; stroke:none;" d="M34.3333 117.667C34.2778 117.722 34.2222 118.778 34.6667 118.333C34.7222 118.278 34.7778 117.222 34.3333 117.667z"/>
<path style="fill:#cbf3ef; stroke:none;" d="M168.333 117.667C168.278 117.722 168.222 118.778 168.667 118.333C168.722 118.278 168.778 117.222 168.333 117.667z"/>
<path style="fill:#a8ebe5; stroke:none;" d="M192 117L192 120C192.696 118.446 192.696 118.554 192 117z"/>
<path style="fill:#b4eee9; stroke:none;" d="M0 119L0 124C0.829891 121.97 0.829895 121.03 0 119z"/>
<path style="fill:#c9f2ef; stroke:none;" d="M34 119L34 122C34.6961 120.446 34.6961 120.554 34 119z"/>
<path style="fill:#a4ca93; stroke:none;" d="M70 119L70 122C70.6961 120.446 70.6961 120.554 70 119M154.333 119.667C154.278 119.722 154.222 120.778 154.667 120.333C154.722 120.278 154.778 119.222 154.333 119.667z"/>
<path style="fill:#c2f1ed; stroke:none;" d="M176 119L176 122C176.696 120.446 176.696 120.554 176 119z"/>
<path style="fill:#b4eee9; stroke:none;" d="M224 119L224 124C224.83 121.969 224.83 121.03 224 119z"/>
<path style="fill:#a8ebe5; stroke:none;" d="M50.3333 120.667C50.2778 120.722 50.2222 121.778 50.6667 121.333C50.7222 121.278 50.7778 120.222 50.3333 120.667M174.333 120.667C174.278 120.722 174.222 121.778 174.667 121.333C174.722 121.278 174.778 120.222 174.333 120.667z"/>
<path style="fill:#c2f1ed; stroke:none;" d="M55 121L55 124C55.6961 122.446 55.6961 122.554 55 121z"/>
<path style="fill:#dbb84a; stroke:none;" d="M154.333 121.667C154.278 121.722 154.222 122.778 154.667 122.333C154.722 122.278 154.778 121.222 154.333 121.667z"/>
<path style="fill:#b4eee9; stroke:none;" d="M57.3333 122.667C57.2778 122.722 57.2222 123.778 57.6667 123.333C57.7222 123.278 57.7778 122.222 57.3333 122.667z"/>
<path style="fill:#c2f1ed; stroke:none;" d="M167.333 122.667C167.278 122.722 167.222 123.778 167.667 123.333C167.722 123.278 167.778 122.222 167.333 122.667z"/>
<path style="fill:#95e7e0; stroke:none;" d="M169.333 122.667C169.278 122.722 169.222 123.778 169.667 123.333C169.722 123.278 169.778 122.222 169.333 122.667M41.3333 123.667C41.2778 123.722 41.2222 124.778 41.6667 124.333C41.7222 124.278 41.7778 123.222 41.3333 123.667z"/>
<path style="fill:#b4eee9; stroke:none;" d="M43.3333 123.667C43.2778 123.722 43.2222 124.778 43.6667 124.333C43.7222 124.278 43.7778 123.222 43.3333 123.667z"/>
<path style="fill:#c2f1ed; stroke:none;" d="M181.333 123.667C181.278 123.722 181.222 124.778 181.667 124.333C181.722 124.278 181.778 123.222 181.333 123.667z"/>
<path style="fill:#ffffff; stroke:none;" d="M0 124L0 225L100 225C96.0102 223.279 91.2522 223.173 87 222.105C80.5434 220.483 74.1174 218.189 68 215.573C44.3317 205.451 23.9693 185.842 12.2593 163C8.0409 154.772 4.92741 145.971 2.74228 137C1.70355 132.735 1.7282 128.006 0 124z"/>
<path style="fill:#afede7; stroke:none;" d="M33 124L33 127C33.6961 125.446 33.6961 125.554 33 124M191.333 124.667C191.278 124.722 191.222 125.778 191.667 125.333C191.722 125.278 191.778 124.222 191.333 124.667z"/>
<path style="fill:#ffffff; stroke:none;" d="M224 124C223.18 163.739 190.54 201.999 155 216.396C145.583 220.211 135.233 223.789 125 224C133.357 227.507 146.94 225 156 225L225 225L225 155C225 145.94 227.507 132.357 224 124z"/>
<path style="fill:#c2f1ed; stroke:none;" d="M35.3333 125.667C35.2778 125.722 35.2222 126.778 35.6667 126.333C35.7222 126.278 35.7778 125.222 35.3333 125.667z"/>
<path style="fill:#9fe9e3; stroke:none;" d="M49.3333 125.667C49.2778 125.722 49.2222 126.778 49.6667 126.333C49.7222 126.278 49.7778 125.222 49.3333 125.667z"/>
<path style="fill:#bac37b; stroke:none;" d="M69.3333 125.667C69.2778 125.722 69.2222 126.778 69.6667 126.333C69.7222 126.278 69.7778 125.222 69.3333 125.667z"/>
<path style="fill:#bec27b; stroke:none;" d="M155 125L155 128C155.696 126.446 155.696 126.554 155 125z"/>
<path style="fill:#95e7e0; stroke:none;" d="M175.333 125.667C175.278 125.722 175.222 126.778 175.667 126.333C175.722 126.278 175.778 125.222 175.333 125.667z"/>
<path style="fill:#c9f2ef; stroke:none;" d="M189.333 125.667C189.278 125.722 189.222 126.778 189.667 126.333C189.722 126.278 189.778 125.222 189.333 125.667z"/>
<path style="fill:#8de6de; stroke:none;" d="M56.3333 126.667C56.2778 126.722 56.2222 127.778 56.6667 127.333C56.7222 127.278 56.7778 126.222 56.3333 126.667z"/>
<path style="fill:#95e7e0; stroke:none;" d="M58.3333 126.667C58.2778 126.722 58.2222 127.778 58.6667 127.333C58.7223 127.278 58.7778 126.222 58.3333 126.667z"/>
<path style="fill:#9fe9e3; stroke:none;" d="M166.333 126.667C166.278 126.722 166.222 127.778 166.667 127.333C166.722 127.278 166.778 126.222 166.333 126.667z"/>
<path style="fill:#8de6de; stroke:none;" d="M168.333 126.667C168.278 126.722 168.222 127.778 168.667 127.333C168.722 127.278 168.778 126.222 168.333 126.667z"/>
<path style="fill:#a8ebe5; stroke:none;" d="M42.3333 127.667C42.2778 127.722 42.2222 128.778 42.6667 128.333C42.7222 128.278 42.7778 127.222 42.3333 127.667z"/>
<path style="fill:#9fe9e3; stroke:none;" d="M182.333 127.667C182.278 127.722 182.222 128.778 182.667 128.333C182.722 128.278 182.778 127.222 182.333 127.667z"/>
<path style="fill:#afede7; stroke:none;" d="M1.33333 129.667C1.27777 129.722 1.22223 130.778 1.66667 130.333C1.72222 130.278 1.77777 129.222 1.33333 129.667z"/>
<path style="fill:#95e7e0; stroke:none;" d="M34.3333 129.667C34.2778 129.722 34.2222 130.778 34.6667 130.333C34.7222 130.278 34.7778 129.222 34.3333 129.667z"/>
<path style="fill:#c2f1ed; stroke:none;" d="M36.3333 129.667C36.2778 129.722 36.2222 130.778 36.6667 130.333C36.7222 130.278 36.7778 129.222 36.3333 129.667z"/>
<path style="fill:#b4eee9; stroke:none;" d="M50.6667 129.333C50.2222 129.778 51.2778 129.722 51.3333 129.667C51.7778 129.222 50.7222 129.278 50.6667 129.333z"/>
<path style="fill:#bec27b; stroke:none;" d="M156.333 129.667C156.278 129.722 156.222 130.778 156.667 130.333C156.722 130.278 156.778 129.222 156.333 129.667z"/>
<path style="fill:#9fe9e3; stroke:none;" d="M173.667 129.333C173.222 129.778 174.278 129.722 174.333 129.667C174.778 129.222 173.722 129.278 173.667 129.333z"/>
<path style="fill:#8de6de; stroke:none;" d="M190.333 129.667C190.278 129.722 190.222 130.778 190.667 130.333C190.722 130.278 190.778 129.222 190.333 129.667z"/>
<path style="fill:#afede7; stroke:none;" d="M223.333 129.667C223.278 129.722 223.222 130.778 223.667 130.333C223.722 130.278 223.778 129.222 223.333 129.667z"/>
<path style="fill:#c7c873; stroke:none;" d="M68 130L69 131L68 130z"/>
<path style="fill:#c2f1ed; stroke:none;" d="M43.6667 131.333C43.2222 131.778 44.2778 131.722 44.3333 131.667C44.7778 131.222 43.7222 131.278 43.6667 131.333z"/>
<path style="fill:#a8ebe5; stroke:none;" d="M180.667 131.333C180.222 131.778 181.278 131.722 181.333 131.667C181.778 131.222 180.722 131.278 180.667 131.333z"/>
<path style="fill:#b3c687; stroke:none;" d="M67 133L68 134L67 133M157 133L158 134L157 133z"/>
<path style="fill:#a8ebe5; stroke:none;" d="M189 133L190 134L189 133z"/>
<path style="fill:#c9f2ef; stroke:none;" d="M2.33333 135.667C2.27777 135.722 2.22223 136.778 2.66667 136.333C2.7222 136.278 2.77779 135.222 2.33333 135.667z"/>
<path style="fill:#c2f1ed; stroke:none;" d="M222.333 135.667C222.278 135.722 222.222 136.778 222.667 136.333C222.722 136.278 222.778 135.222 222.333 135.667z"/>
<path style="fill:#c7c873; stroke:none;" d="M66 136L67 137L66 136z"/>
<path style="fill:#c4c077; stroke:none;" d="M158 136L159 137L158 136z"/>
<path style="fill:#bac37b; stroke:none;" d="M65 138L66 139L65 138z"/>
<path style="fill:#b3c687; stroke:none;" d="M159 138L160 139L159 138z"/>
<path style="fill:#bac37b; stroke:none;" d="M64 140L65 141L64 140z"/>
<path style="fill:#b3c687; stroke:none;" d="M160 140L161 141L160 140z"/>
<path style="fill:#e3c14d; stroke:none;" d="M63 142L64 143L63 142z"/>
<path style="fill:#d5b958; stroke:none;" d="M161 142L162 143L161 142z"/>
<path style="fill:#cbf3ef; stroke:none;" d="M4.33333 143.667C4.27779 143.722 4.22222 144.778 4.66667 144.333C4.72224 144.278 4.77776 143.222 4.33333 143.667z"/>
<path style="fill:#a4ca93; stroke:none;" d="M62 143L63 144L62 143z"/>
<path style="fill:#9dd19f; stroke:none;" d="M162 143L163 144L162 143z"/>
<path style="fill:#cbf3ef; stroke:none;" d="M220.333 143.667C220.278 143.722 220.222 144.778 220.667 144.333C220.722 144.278 220.778 143.222 220.333 143.667z"/>
<path style="fill:#fbab08; stroke:none;" d="M46 163L179 163C178.969 152.055 173.991 146.496 163 144.996C149.264 143.121 133.898 145 120 145C101.254 145 81.6558 143.321 63 144.88C51.6083 145.831 46.0322 151.795 46 163z"/>
<path style="fill:#a4ca93; stroke:none;" d="M56.6667 145.333C56.2222 145.778 57.2778 145.722 57.3333 145.667C57.7778 145.222 56.7222 145.278 56.6667 145.333z"/>
<path style="fill:#c4c077; stroke:none;" d="M58 145C59.2483 145.685 59.5484 145.749 61 146C59.7516 145.315 59.4516 145.251 58 145M164 145C165.506 145.683 166.315 145.826 168 146C166.494 145.317 165.685 145.174 164 145z"/>
<path style="fill:#c7c873; stroke:none;" d="M54 146L55 147L54 146z"/>
<path style="fill:#c4c077; stroke:none;" d="M170 146L171 147L170 146z"/>
<path style="fill:#cfbb5e; stroke:none;" d="M52 147L53 148L52 147z"/>
<path style="fill:#cabf6a; stroke:none;" d="M172 147L173 148L172 147z"/>
<path style="fill:#9fe9e3; stroke:none;" d="M7 152L8 153L7 152z"/>
<path style="fill:#cabf6a; stroke:none;" d="M47 152L48 153L47 152M177 152L178 153L177 152z"/>
<path style="fill:#cfbb5e; stroke:none;" d="M46 154L47 155L46 154M178 154L179 155L178 154z"/>
<path style="fill:#bac37b; stroke:none;" d="M45.3333 156.667C45.2778 156.722 45.2222 157.778 45.6667 157.333C45.7222 157.278 45.7778 156.222 45.3333 156.667M179.333 156.667C179.278 156.722 179.222 157.778 179.667 157.333C179.722 157.278 179.778 156.222 179.333 156.667z"/>
<path style="fill:#a8ebe5; stroke:none;" d="M9 157L10 158L9 157M215 157L216 158L215 157z"/>
<path style="fill:#ebbe38; stroke:none;" d="M45 158L45 170C46.5124 166.396 46.5124 161.604 45 158M179 158L179 170C180.512 166.396 180.512 161.604 179 158z"/>
<path style="fill:#ffba1b; stroke:none;" d="M46 163L46 169L179 169L179 163L46 163z"/>
<path style="fill:#a8ebe5; stroke:none;" d="M14 167L15 168L14 167M210 167L211 168L210 167z"/>
<path style="fill:#ffb800; stroke:none;" d="M46 169C50.2151 170.769 55.4645 170 60 170L86 170L179 170C174.785 168.231 169.536 169 165 169L139 169L46 169z"/>
<path style="fill:#71d9c6; stroke:none;" d="M45 170C48.6987 171.552 53.0172 171 57 171L80 171C84.7157 171 90.1121 170.055 94 173C95.7034 168.481 85.7484 170 83 170L45 170z"/>
<path style="fill:#fef8ef; stroke:none;" d="M95 170C103.367 173.511 116.924 171 126 171C117.633 167.489 104.076 170 95 170z"/>
<path style="fill:#ebeff0; stroke:none;" d="M126 170C124.923 177.183 121.513 182.611 115 186C123.266 188.162 127.706 176.409 128 170L126 170z"/>
<path style="fill:#71d9c6; stroke:none;" d="M128 170C132.969 172.085 139.65 171 145 171L180 171C175.031 168.915 168.35 170 163 170L128 170z"/>
<path style="fill:#ffffff; stroke:none;" d="M95 171C95.6144 182.817 108.068 192.28 118.957 184.347C123.353 181.144 125.224 176.174 126 171L95 171z"/>
<path style="fill:#a8ebe5; stroke:none;" d="M17 172L18 173L17 172M207 172L208 173L207 172z"/>
<path style="fill:#b4eee9; stroke:none;" d="M21 178L22 179L21 178z"/>
<path style="fill:#afede7; stroke:none;" d="M96 178L97 179L96 178z"/>
<path style="fill:#b4eee9; stroke:none;" d="M203 178L204 179L203 178M98 181L99 182L98 181z"/>
<path style="fill:#9fe9e3; stroke:none;" d="M123 182L124 183L123 182M122 183L123 184L122 183z"/>
<path style="fill:#b5e8e5; stroke:none;" d="M108 187C110.332 187.985 112.457 187.981 115 188C112.668 187.015 110.543 187.019 108 187z"/>
<path style="fill:#b4eee9; stroke:none;" d="M46 203L47 204L46 203M178 203L179 204L178 203z"/>
<path style="fill:#a8ebe5; stroke:none;" d="M52 207L53 208L52 207M172 207L173 208L172 207z"/>
<path style="fill:#afede7; stroke:none;" d="M57 210L58 211L57 210M167 210L168 211L167 210z"/>
<path style="fill:#a8ebe5; stroke:none;" d="M67 215L68 216L67 215M157 215L158 216L157 215z"/>
<path style="fill:#95e7e0; stroke:none;" d="M84.6667 221.333C84.2222 221.778 85.2778 221.722 85.3333 221.667C85.7778 221.222 84.7222 221.278 84.6667 221.333z"/>
<path style="fill:#c2f1ed; stroke:none;" d="M139.667 221.333C139.222 221.778 140.278 221.722 140.333 221.667C140.778 221.222 139.722 221.278 139.667 221.333z"/>
<path style="fill:#a8ebe5; stroke:none;" d="M88.6667 222.333C88.2222 222.778 89.2778 222.722 89.3333 222.667C89.7778 222.222 88.7222 222.278 88.6667 222.333z"/>
<path style="fill:#c9f2ef; stroke:none;" d="M135.667 222.333C135.222 222.778 136.278 222.722 136.333 222.667C136.778 222.222 135.722 222.278 135.667 222.333z"/>
<path style="fill:#b4eee9; stroke:none;" d="M93 223C94.2483 223.685 94.5484 223.749 96 224C94.7516 223.315 94.4516 223.251 93 223M129 223C130.248 223.685 130.548 223.749 132 224C130.752 223.315 130.452 223.251 129 223z"/>
<path style="fill:#a8ebe5; stroke:none;" d="M100 224C101.769 224.779 103.036 224.912 105 225C103.231 224.221 101.964 224.088 100 224z"/>
<path style="fill:#c2f1ed; stroke:none;" d="M119 224C121.052 224.874 122.747 224.953 125 225C122.948 224.126 121.253 224.047 119 224z"/>
</svg>
