<?xml version="1.0" standalone="no"?><!DOCTYPE svg PUBLIC "-//W3C//DTD SVG 1.1//EN" "http://www.w3.org/Graphics/SVG/1.1/DTD/svg11.dtd"><svg t="1561950246287" class="icon" viewBox="0 0 1024 1024" version="1.1" xmlns="http://www.w3.org/2000/svg" p-id="3185" xmlns:xlink="http://www.w3.org/1999/xlink" width="200" height="200"><defs><style type="text/css"></style></defs><path d="M793.114947 761.020632a30.531368 30.531368 0 0 1-32.336842-32.336843v-268.314947a255.380211 255.380211 0 0 0-510.787368 0v268.314947a32.336842 32.336842 0 0 1-64.673684 0v-268.314947a320.053895 320.053895 0 0 1 640.080842 0v268.314947a30.531368 30.531368 0 0 1-32.282948 32.336843z" fill="#208BB5" p-id="3186"></path><path d="M793.141895 867.678316h-32.336842V486.211368h32.336842a191.083789 191.083789 0 0 1 190.733473 190.733474 189.035789 189.035789 0 0 1-190.733473 190.733474z m32.336842-310.352842v242.526315a125.224421 125.224421 0 0 0 93.749895-122.853052 121.505684 121.505684 0 0 0-93.749895-119.673263zM250.017684 867.678316h-32.336842A191.083789 191.083789 0 0 1 26.947368 676.944842a189.035789 189.035789 0 0 1 190.733474-190.733474h32.336842z m-64.673684-310.352842A125.197474 125.197474 0 0 0 91.621053 680.232421a128.026947 128.026947 0 0 0 93.749894 122.853053z" fill="#83D2EA" p-id="3187"></path></svg>